<svg id="Layer_1" data-name="Layer 1" xmlns="http://www.w3.org/2000/svg" viewBox="0 0 124.25 185.74"><defs><style>.cls-1{fill:#010101;}.cls-2{fill:#fff;}</style></defs><path class="cls-1" d="M62.63,171a49,49,0,0,1,.54-8.72,51.51,51.51,0,0,1,2.18-8.71c2.35-7.47-1.73-12.3-6-31-2.42-10.65-2.08-13.42-5.44-17.43-3.87-4.62-10.7-8.56-14.71-6.54-1.85.94-3.45,3.33-5,5.59a10.2,10.2,0,0,0-1.56,3.13,10.81,10.81,0,0,0,0,4.9c1.14,7.91.88,7.08,1.63,10.35a44.28,44.28,0,0,0,1.63,6c.76,2,1.42,4,2.18,6,.54,1.4.8,2,.55,2.72-.57,1.58-3.12,2-4.36,2.18-4.88.74-7.68-1.22-8.17-.54-1,1.31,9.1,9.77,20.15,20.15,12.56,11.79,12.5,13.09,18.52,16.88s13.07,6.88,12.52,8.71c-.26.89-2.15,1-2.72,1.09-5.51.46-8.16-5.17-14.16-5.44a4.36,4.36,0,0,0-2.72.54c-1.91,1.22-1.29,3.56-2.72,4.36-1.62.9-5.42-.4-6-3.27a4.74,4.74,0,0,1,2.72-4.9c2.31-1.1,4.55.52,4.9,0,.83-1.25-11.67-10.89-20.15-18-7.3-6.1-12.91-11.38-16.34-14.71a2.56,2.56,0,0,0-2.18,0c-.74.48-.64,1.41-1.09,2.18s-1.69,1.65-4.9,1.63A4.23,4.23,0,0,1,9.8,146a4.13,4.13,0,0,1,0-3.27,4.44,4.44,0,0,1,4.36-2.18c1.64.15,2.6,1.23,2.72,1.09.25-.3-4.5-3.91-8.17-9.26a34,34,0,0,1-3.26-6c-.26-2.41.15-3.08.54-3.27,1.12-.54,2.53,2.6,6,3.27,2.17.42,2.48-.69,5.45-.54,3.52.17,4.8,1.82,6,1.08.7-.43,1.28-1.62.54-6.53a48.43,48.43,0,0,0-3.81-13.07c-2.71-5.78-4.1-8.7-6-10.35-2.55-2.23-4.36-2.38-4.9-4.36-.67-2.43,1.3-5,3.81-8.17s4-5.14,6.54-6.53c3.79-2.09,5.81-.9,16.88-2.72,3.6-.6,5.56-1.08,6.53-2.73s.49-3.71-.54-6.53c-2.28-6.23-4-11-9.26-16.34-.91-.93-4.24-3.34-10.89-8.17C17.83,38.13,14.07,33.82,9.26,31A13.5,13.5,0,0,1,6,27.78a19.86,19.86,0,0,1-2.72-4.91C2.46,20.74,2.6,20,1.63,18A16.74,16.74,0,0,0,0,15.25c.23-.49,1.87-3.94,3.81-3.81,1.51.1,2.47,2.3,3.81,5.44.62,1.45.76,2,1.12,2.92,1.22,3,3.24,4.91,5.42,6.89a30.41,30.41,0,0,0,10.35,6.53c3.34,1.24,10.58,3.92,15.25.55C41.29,32.66,41,32.05,43,29.41c4.43-5.65,11.24-9.62,13.07-8.17,1.47,1.16-1,5.21,1.09,7.08,1,.88,2.52.84,3.57.82a11.74,11.74,0,0,0,4.6-1.36c12-3.1,16.34-3.82,16.34-3.82a16.53,16.53,0,0,0,6.54-2.18c2.14-1.32,2.6-2.4,4.9-4.35s3.54-2.4,7.08-4.36c2.41-1.34,5.79-3.31,9.8-6L119.27,0a6.33,6.33,0,0,1,4.36,3.27,6.36,6.36,0,0,1,0,5.44,198.92,198.92,0,0,1-18.52,11.44S90.68,28,85,35.4a13.65,13.65,0,0,0-1.63,2.72,21.05,21.05,0,0,0-1.09,4.36,17.47,17.47,0,0,1-2.18,4.9c-2,3.69-2.35,8.26-2.73,13.07-.23,3.09,0,7.33.55,15.8.46,7.44.81,10.75.54,16.33-.13,2.78-.36,5-.54,6.54l-1.63,2.18A9.83,9.83,0,0,0,73,105.65c-1.27,3.56.34,6.88,1.09,9.26,1.78,5.71,1.55,10.17,1.09,19.06-.46,8.72-2.24,11.25-1.09,18.52A38.21,38.21,0,0,0,75.7,159c-.44,4.43-.54,7.94-.54,10.34,0,1.71,0,2.57-.55,3.27C72.55,175.09,65.49,172.26,62.63,171Z"/><path class="cls-1" d="M38.67,15.25"/><path class="cls-1" d="M36.38,39.32l5.39-5.39a3.27,3.27,0,0,0,.3-.35,9.69,9.69,0,0,1,2-2A17.22,17.22,0,0,1,47.38,30a24.56,24.56,0,0,0,3.7-2.1l.22-.16,4-3.23a3.28,3.28,0,0,0,1.22-2.93,10.7,10.7,0,0,0-3.73-7.37,9.25,9.25,0,0,0-2.7-1.46,3.28,3.28,0,0,0-1.07-.17H43.65a3.22,3.22,0,0,0-1.26.25,30.26,30.26,0,0,0-4.81,2.47,31.18,31.18,0,0,0-4.17,3.14,3.31,3.31,0,0,0-1.06,2.89l.87,6.5a6.15,6.15,0,0,1-.54,4.35c-1.32,2.25-3.83,2.24-4.36,4.36a3.41,3.41,0,0,0,.54,2.72c1.08,1.48,3.67,1.93,6.38.86A3.38,3.38,0,0,0,36.38,39.32Z"/><path class="cls-1" d="M40.85,13.62c0,.21-.4.22-1.09.54s-.95.64-1.09.54-.15-1.26.54-1.63a1.34,1.34,0,0,1,1.09,0C40.47,13.15,40.88,13.38,40.85,13.62Z"/><path class="cls-2" d="M43.57,30.5c-.24.07-1.68-4.32-2.18-6-.21-.71-.67-2.32-.8-2.8a8.63,8.63,0,0,0-.29-1,16.79,16.79,0,0,1-1.09-4.36,12.56,12.56,0,0,1,0-1.64,2.81,2.81,0,0,1,.55-.54,5,5,0,0,1,1.09-.54c.72-.35.72-.46,1.09-.55a2.66,2.66,0,0,1,1.08,0,8.35,8.35,0,0,1,2.73,1.09,13.4,13.4,0,0,1,2.72,1.63A13.13,13.13,0,0,1,50.65,18a44.51,44.51,0,0,1,3.27,4.9,1,1,0,0,0,.54.55c.35.09.72-.14,1.31-.53s.81-.61.87-.56,0,.26-.55,1.09h0l-.54,1.09h0l-1.09.54c-.24.26-.61.65-1.09,1.09a21.91,21.91,0,0,1-4.9,3.27c-1.19.63-1.79.94-2.18,1.09a6.38,6.38,0,0,0-2.18,1.09l-.54.54-.55.55-.54.54-2.72,2.72c-3.66,3.67-3.39,3.56-3.82,3.82s-3.69,2.12-6,.54a3.81,3.81,0,0,1-1.63-3.81,3.84,3.84,0,0,1,1.09-1.63c.55-.53.71-.4,1.63-1.09a6.5,6.5,0,0,0,1.64-1.64A5.14,5.14,0,0,0,33.22,31c.41.2.51.41.55.55s0,.45-1.09,1.63a10.86,10.86,0,0,1-1.09,1.09c-.8.65-1.06.58-1.64,1.09A2.88,2.88,0,0,0,28.86,37C28.73,38.17,30,39.3,31,39.76a5.1,5.1,0,0,0,4.36-.55c.63-.36.5-.44,2.72-2.72,1.08-1.11,2.18-2.18,3.27-3.27L43,31.59a22.35,22.35,0,0,1-2.17.54c-1.4.27-5.07,1-7.08-.54-.16-.12-.6-.47-.55-.55a12.08,12.08,0,0,1,1.64.65,8.34,8.34,0,0,0,3.26.44,11.57,11.57,0,0,0,2.73-.54A16.82,16.82,0,0,0,42.48,31h0c-.18,0,.37.07.54,0,.41-.15.29-1,.55-1.09.09,0,.25.06.54.55l2.18-1.09a40.19,40.19,0,0,0,3.81-2.18c3-1.92,3.31-2.69,3.27-3.27,0-.14,0-.29-.54-1.09-1.64-2.32.27.05-2.18-3.26-1-1.38-1.53-2.07-1.63-2.18A17.67,17.67,0,0,0,45.2,14.7c-1.41-.86-2-1.11-2.72-1.08a2.85,2.85,0,0,0-1.63.54,2.74,2.74,0,0,0-1.09,1.63,2.6,2.6,0,0,0,0,1.09c.49,1.39.85,2.53,1.09,3.27,1.34,4.29,1.25,4.57,2.17,7.08a17.43,17.43,0,0,1,1.09,3.27c-.23.11-.72-.73-.54-.55h0C43.63,30.39,43.6,30.49,43.57,30.5Z"/></svg>